<?xml version="1.0" encoding="utf-8"?>
<!-- Generator: Adobe Illustrator 19.2.0, SVG Export Plug-In . SVG Version: 6.00 Build 0)  -->
<svg version="1.1"
	 id="svg8" inkscape:version="0.92.4 (5da689c313, 2019-01-14)" sodipodi:docname="LOGO ROCA.svg" xmlns:cc="http://creativecommons.org/ns#" xmlns:dc="http://purl.org/dc/elements/1.1/" xmlns:inkscape="http://www.inkscape.org/namespaces/inkscape" xmlns:rdf="http://www.w3.org/1999/02/22-rdf-syntax-ns#" xmlns:sodipodi="http://sodipodi.sourceforge.net/DTD/sodipodi-0.dtd" xmlns:svg="http://www.w3.org/2000/svg"
	 xmlns="http://www.w3.org/2000/svg" xmlns:xlink="http://www.w3.org/1999/xlink" x="0px" y="0px" viewBox="0 0 375 324"
	xml:space="preserve">
<style type="text/css">
	.st0{fill:none;stroke:#000000;stroke-width:4;stroke-linejoin:round;}
	.st1{fill:none;stroke:#000000;stroke-width:4;}
	.st2{fill:none;stroke:#000000;stroke-width:2;}
	.st3{opacity:0.3349;fill:#00001A;}
</style>
<sodipodi:namedview  bordercolor="#666666" borderopacity="1.0" id="base" inkscape:current-layer="g20" inkscape:cx="345.81521" inkscape:cy="446.29832" inkscape:document-units="mm" inkscape:pageopacity="0.0" inkscape:pageshadow="2" inkscape:window-height="1001" inkscape:window-maximized="1" inkscape:window-width="1920" inkscape:window-x="-9" inkscape:window-y="-9" inkscape:zoom="1.4" pagecolor="#ffffff" showgrid="false">
	</sodipodi:namedview>
<g id="layer1" inkscape:groupmode="layer" inkscape:label="Capa 1">
	<g id="g18" transform="matrix(0.35277777,0,0,-0.35277777,79.319513,124.21201)" inkscape:label="logo winnie">
		<g id="g20">
			<g id="flowRoot2349" transform="matrix(0.75000002,0,0,-0.75000002,-227.78915,380.62383)">
			</g>
			<g id="flowRoot2422" transform="matrix(0.61002549,0,0,-0.68531432,-126.54746,366.72198)">
			</g>
			<g id="flowRoot2434">
			</g>
			<g id="flowRoot2422-5" transform="matrix(0.75000002,0,0,-0.91669348,-175.35778,501.3228)">
			</g>
			<path id="path2479" inkscape:connector-curvature="0" class="st0" d="M249.7-112.6V68l-160,92.4V-20.5L249.7-112.6z"/>
			<path id="path2479-2" inkscape:connector-curvature="0" class="st0" d="M249.7-112.6V68l160,92.4V-20.5L249.7-112.6z"/>
			<path id="path2511" inkscape:connector-curvature="0" class="st0" d="M89.7,160.4l124.9,88.7l42.9-17.8l53.4,44l65.9-35.6V203
				l32.8-42.7"/>
			<path id="path2513" inkscape:connector-curvature="0" class="st1" d="M257.5,231.3l-48.1-38.7L249.7,68"/>
			<path id="path2515" inkscape:connector-curvature="0" sodipodi:nodetypes="czc" class="st2" d="M304.4,98.6
				c0,0-51.8-6.5-53.1,36.4c-1.4,42.9-20.9,74.3-20.9,74.3"/>
			<path id="path2515-4" inkscape:connector-curvature="0" sodipodi:nodetypes="czc" class="st2" d="M327.3,111.6
				c0,0-51.8-6.5-53.1,36.4c-1.4,42.9-20.9,74.3-20.9,74.3"/>
			<path id="path2515-4-7" inkscape:connector-curvature="0" sodipodi:nodetypes="czc" class="st2" d="M349.3,127.3
				c0,0-53.8-6.7-55.2,37.1c-1.4,43.7-21.8,75.7-21.8,75.7"/>
			<path id="path2515-4-7-2" inkscape:connector-curvature="0" sodipodi:nodetypes="czc" class="st2" d="M383.4,144.3
				c0,0-70-8-71.4,35.7c-1.4,43.7-21.8,75.7-21.8,75.7"/>
			<path id="path2515-4-7-2-9" inkscape:connector-curvature="0" sodipodi:nodetypes="czc" class="st2" d="M403.3,158.4
				c0,0-70-8-71.4,35.7c-1.4,43.7-21.8,75.7-21.8,75.7"/>
			<path id="path2515-4-7-2-9-3" inkscape:connector-curvature="0" sodipodi:nodetypes="czc" class="st2" d="M392,185.5
				c0,0-36.4-16.1-37.8,27.6c-1.4,43.7-10.7,46.8-10.7,46.8"/>
			<path id="path2598" inkscape:connector-curvature="0" class="st1" d="M209.4,192.5L161.6,209"/>
			<path id="path2600" inkscape:connector-curvature="0" class="st2" d="M409.6-20.5L319.2-5.3L249.7,68"/>
			<path id="path2602" class="st3" d="M190.3,205.7l-17.5,6l21.1,15c11.6,8.2,21.4,15,21.8,15c0.4,0,7.3-2.7,15.2-6
				c11.5-4.8,14.3-6.2,13.5-6.9c-1.5-1.4-34.8-28.1-35.7-28.6C208.2,199.8,200,202.3,190.3,205.7L190.3,205.7z"/>
			<g id="flowRoot2618" transform="matrix(0.75000002,0,0,-0.75000002,-189.04544,392.25061)">
			</g>
			<g id="flowRoot2618-8" transform="matrix(0.75000002,0,0,-0.75000002,-152.30236,392.32331)">
			</g>
			<g id="flowRoot2618-0-4" transform="matrix(1.1745514,0,0,-1.3564501,-333.4696,886.00644)">
			</g>
			<g id="flowRoot2618-0-4-4" transform="matrix(0.96752836,0,0,-0.36945034,-262.44069,47.136952)">
			</g>
			<path id="path969" inkscape:connector-curvature="0" class="st1" d="M-96.7-139.2h833.4"/>
			<path id="path969-0" inkscape:connector-curvature="0" class="st1" d="M-96.7-274.5h833.4"/>
			<g>
				<path d="M24.2-86.6H1.3L-44.2,77.2l3,5.5h38.8v112.6h-55.8V-86.6H-80v306H2c5.1,0,9.3-2,12.5-6.1c3.2-4,4.8-9.3,4.8-15.6V81.5
					c0-14.7-7.9-22.1-23.8-22.1c-1.6,0-3.9,0.1-6.9,0.3c-3,0.2-5.2,0.3-6.6,0.3C-3.8,11.3,10.2-37.6,24.2-86.6z"/>
				<path d="M577.9-64.9c0-6.4-1.7-11.6-5-15.6c-3.3-4-7.6-6.1-12.7-6.1h-63c-5.1,0-9.3,2-12.5,6.1c-3.2,4-4.8,9.3-4.8,15.6v262.6
					c0,6.4,1.6,11.6,4.8,15.6c3.2,4,7.4,6.1,12.5,6.1h63c5.1,0,9.3-2,12.7-6.1c3.3-4,5-9.3,5-15.6v-71.2H556v68.8h-54.4V-62.5H556
					v75.3h21.9V-64.9z"/>
				<path d="M732.9-86.6h-21.6l-8.6,68H654l-8.6-68h-21v0.8l43.6,306h21.4L732.9-86.6z M699.8,5.5l-21.4,165.8L656.8,5.5H699.8z"/>
			</g>
			<g>
				<path d="M-70.8-250.1h-9.2v79.3h9.2V-250.1z"/>
				<path d="M-3.4-250.1h-6.3l-27.5,58.3v-58.3h-8.6v79.3h6.8l27-57.3v57.3h8.6V-250.1z"/>
				<path d="M62.4-244.5c0-1.7-0.7-3-2-4.1c-1.4-1-3.1-1.6-5.3-1.6H28.1c-2.2,0-3.9,0.5-5.3,1.6c-1.4,1-2,2.4-2,4.1v68
					c0,1.7,0.7,3,2,4.1c1.4,1,3.1,1.6,5.3,1.6h27.1c2.2,0,3.9-0.5,5.3-1.6c1.4-1,2-2.4,2-4.1v-18.4h-9.2v17.8H29.9v-66.8h23.3v27.4
					h-11v6.1h20.2V-244.5z"/>
				<path d="M120.3-250.1H86.5v79.3h33.5v-6.2H95.6v-29.6h22.1v-6.3H95.6v-30.9h24.7V-250.1z"/>
				<path d="M184.8-250.1h-6.3l-27.5,58.3v-58.3h-8.6v79.3h6.8l27-57.3v57.3h8.6V-250.1z"/>
				<path d="M218.6-250.1h-9.2v79.3h9.2V-250.1z"/>
				<path d="M277.3-250.1h-33.9v79.3h33.5v-6.2h-24.3v-29.6h22.1v-6.3h-22.1v-30.9h24.7V-250.1z"/>
				<path d="M343.2-250.1h-9.6l-19.2,42.5l1.3,1.4H332v29.2h-23.5v-73.1h-9.2v79.3h34.5c2.2,0,3.9-0.5,5.3-1.6c1.4-1,2-2.4,2-4.1
					v-30.1c0-3.8-3.3-5.7-10-5.7c-0.7,0-1.6,0-2.9,0.1c-1.3,0-2.2,0.1-2.8,0.1C331.4-224.8,337.3-237.4,343.2-250.1z"/>
				<path d="M384.8-154.7l-16.1-11.7h-6.1v0.3l9.9,11.6h12.4V-154.7z M374.2-250.1h-9.2v79.3h9.2V-250.1z"/>
				<path d="M440.7-250.1h-9.1l-3.6,17.6h-20.5l-3.6-17.6H395v0.2l18.4,79.3h9L440.7-250.1z M426.8-226.3l-9,43l-9.1-43H426.8z"/>
				<path d="M536.1-244.5c0-1.7-0.7-3-2.1-4.1c-1.4-1-3.2-1.6-5.3-1.6h-26.5c-2.2,0-3.9,0.5-5.3,1.6c-1.4,1-2,2.4-2,4.1v68
					c0,1.7,0.7,3,2,4.1c1.4,1,3.1,1.6,5.3,1.6h26.5c2.2,0,3.9-0.5,5.3-1.6c1.4-1,2.1-2.4,2.1-4.1v-18.4h-9.2v17.8H504v-66.8h22.9
					v19.5h9.2V-244.5z"/>
				<path d="M569.5-250.1h-9.2v79.3h9.2V-250.1z"/>
				<path d="M634.6-170.9l-17.8-79.5h-8.6l-17.8,79.5h9.1l12.8-63.1l0.4-5.2c0,1.2,0.2,2.9,0.5,5.2l12.8,63.1H634.6z"/>
				<path d="M664.3-250.1h-9.2v79.3h9.2V-250.1z"/>
				<path d="M722.1-250.1h-32.9v79.3h9.2v-73.1h23.8V-250.1z"/>
			</g>
		</g>
	</g>
</g>
</svg>
